<?xml version="1.0" ?>
<!DOCTYPE svg  PUBLIC '-//W3C//DTD SVG 1.1//EN'  'http://www.w3.org/Graphics/SVG/1.1/DTD/svg11.dtd'>
    <svg 
        height="30px" 
        id="Layer_1" 
        style="enable-background:new 0 0 67 67;" 
        version="1.1" 
        viewBox="0 0 67 67" 
        width="30px" 
        xml:space="preserve" 
        xmlns="http://www.w3.org/2000/svg" 
        xmlns:xlink="http://www.w3.org/1999/xlink">
        <path d="M50.837,46.137V34.425c0-6.274-3.35-9.194-7.816-9.194  c-3.604,0-5.219,1.982-6.119,3.373V25.71h-6.79c0.09,1.917,0,20.428,0,20.428h6.79V34.729c0-0.61,0.044-1.22,0.224-1.657  c0.49-1.219,1.607-2.482,3.482-2.482c2.458,0,3.44,1.873,3.44,4.618v10.929H50.837z M22.959,22.922c2.367,0,3.842-1.569,3.842-3.531  c-0.044-2.003-1.475-3.528-3.797-3.528s-3.841,1.525-3.841,3.528c0,1.962,1.474,3.531,3.753,3.531H22.959z M26.354,46.137V25.71  h-6.789v20.427H26.354z M33.5,1l28.146,16.25v32.5L33.5,66L5.354,49.75v-32.5L33.5,1z" 
            style="fill:#ff4f00;"/>
        <g xmlns="http://www.w3.org/2000/svg" 
            transform="translate(0.000000,148.000000) scale(0.100000,-0.100000)" 
            fill="#ff4f00" 
            stroke="none">
<path d="M2870 700 l0 -450 1355 0 1355 0 0 450 0 450 -1355 0 -1355 0 0 -450z m1842 143 l123 -176 5 171 c3 95 8 172 13 172 4 0 18 0 32 0 l25 0 0 -240 0 -240 -37 0 c-38 1 -39 2 -163 181 l-125 180 -3 -181 -2 -180 -35 0 -35 0 0 245 0 245 39 0 39 0 124 -177z m-1428 153 c39 -16 116 -89 116 -110 0 -7 -13 -19 -30 -26 -28 -11 -31 -10 -56 19 -74 88 -211 76 -269 -23 -80 -137 53 -298 200 -242 24 10 56 31 69 47 25 29 26 29 56 14 16 -8 30 -18 30 -21 0 -19 -49 -69 -93 -94 -43 -25 -63 -30 -117 -30 -80 0 -132 22 -181 77 -110 122 -72 316 76 384 49 23 151 25 199 5z m511 -5 c89 -40 139 -121 139 -221 0 -139 -102 -240 -241 -240 -71 0 -127 24 -176 75 -111 114 -77 308 66 380 63 31 152 34 212 6z m393 3 c89 -37 146 -124 146 -224 0 -79 -25 -132 -86 -184 -51 -44 -91 -56 -190 -56 l-78 0 0 240 0 240 85 0 c55 0 99 -6 123 -16z m272 -224 l0 -240 -35 0 -35 0 0 240 0 240 35 0 35 0 0 -240z m850 220 c43 -22 110 -86 110 -105 0 -7 -13 -18 -30 -25 -28 -11 -31 -10 -62 23 -106 111 -288 40 -288 -113 0 -154 176 -223 287 -112 l37 37 -74 5 -75 5 -3 38 -3 37 115 0 116 0 0 -40 c0 -115 -106 -210 -235 -210 -73 0 -128 23 -178 75 -111 114 -77 308 66 380 66 32 159 35 217 5z"/>
<path d="M3620 918 c-67 -35 -85 -66 -85 -147 0 -58 4 -73 27 -103 34 -44 102 -73 153 -65 163 27 199 251 51 318 -54 25 -93 24 -146 -3z"/>
<path d="M4060 770 l0 -173 47 7 c56 7 110 46 135 97 52 100 -20 223 -137 237 l-45 5 0 -173z"/>
<path d="M350 770 l0 -243 78 6 c99 6 153 29 200 83 105 119 71 292 -73 366 -26 14 -67 22 -122 26 l-83 5 0 -243z m189 150 c95 -54 119 -176 49 -256 -38 -43 -70 -60 -131 -69 l-47 -7 0 182 0 183 46 -7 c25 -3 63 -15 83 -26z"/>
<path d="M825 783 c-38 -126 -70 -234 -73 -241 -3 -10 4 -13 29 -10 32 3 34 6 52 66 l19 63 95 -3 95 -3 20 -62 c17 -59 21 -63 48 -63 17 0 30 3 30 8 1 4 -32 112 -72 240 l-73 232 -51 0 -51 0 -68 -227z m153 75 c17 -51 33 -103 37 -115 6 -22 5 -23 -70 -23 -58 0 -76 3 -72 13 2 6 16 53 31 102 34 115 34 115 40 115 3 0 18 -42 34 -92z"/>
<path d="M1132 998 c2 -7 42 -116 89 -241 l84 -228 44 3 44 3 33 85 c18 47 59 154 92 238 l60 152 -33 0 -33 0 -77 -197 c-43 -109 -80 -201 -84 -205 -4 -4 -40 84 -82 195 l-76 202 -33 3 c-24 3 -31 0 -28 -10z"/>
<path d="M1640 770 l0 -240 30 0 30 0 0 240 0 240 -30 0 -30 0 0 -240z"/>
<path d="M1760 770 l0 -241 153 3 152 3 0 30 0 30 -122 3 -123 3 0 54 0 55 125 0 125 0 0 30 0 30 -125 0 -125 0 0 90 0 90 125 0 125 0 0 30 0 30 -155 0 -155 0 0 -240z"/>
<path d="M2211 997 c-56 -21 -81 -59 -81 -123 0 -84 38 -112 174 -129 111 -14 133 -122 29 -145 -68 -16 -142 14 -143 58 0 7 -13 12 -30 12 -24 0 -30 -4 -30 -20 0 -37 28 -77 67 -95 48 -23 156 -24 199 -2 54 28 81 119 51 176 -21 42 -62 64 -148 77 -44 7 -87 18 -95 25 -8 6 -14 27 -14 45 0 44 37 69 100 68 57 -1 89 -18 102 -55 8 -23 16 -29 40 -29 28 0 29 2 23 33 -10 45 -30 74 -65 92 -41 21 -137 28 -179 12z"/>
<path d="M6107 996 c-20 -8 -44 -19 -52 -26 -22 -18 -38 -78 -32 -118 11 -66 53 -91 175 -107 65 -9 95 -31 95 -73 0 -40 -17 -60 -62 -72 -62 -16 -133 8 -146 51 -8 26 -65 27 -65 2 0 -30 37 -81 72 -99 44 -23 152 -23 196 0 57 30 80 86 62 152 -17 60 -51 82 -152 100 -45 8 -90 22 -100 31 -21 19 -23 51 -4 75 46 61 196 35 196 -34 0 -14 8 -18 31 -18 31 0 31 1 26 38 -14 86 -135 135 -240 98z"/>
<path d="M6590 997 c-171 -48 -228 -268 -102 -393 91 -91 243 -90 336 2 41 41 58 80 63 146 15 164 -137 289 -297 245z m161 -82 c42 -27 79 -96 79 -145 0 -56 -36 -117 -87 -147 -82 -48 -180 -27 -230 49 -107 160 78 349 238 243z"/>
<path d="M6950 770 l0 -240 156 0 155 0 -3 33 -3 32 -122 3 -123 3 0 204 0 205 -30 0 -30 0 0 -240z"/>
<path d="M7320 846 c0 -92 5 -177 11 -193 36 -97 163 -142 259 -93 l40 20 0 -25 c0 -21 5 -25 30 -25 l30 0 0 240 0 240 -30 0 -30 0 0 -150 c0 -171 -9 -208 -62 -240 -18 -11 -50 -20 -72 -20 -31 0 -45 7 -77 39 l-39 39 0 166 0 166 -30 0 -30 0 0 -164z"/>
<path d="M7750 980 l0 -30 75 0 75 0 0 -210 0 -210 30 0 30 0 0 210 0 210 75 0 75 0 0 30 0 30 -180 0 -180 0 0 -30z"/>
<path d="M8170 770 l0 -240 30 0 30 0 0 240 0 240 -30 0 -30 0 0 -240z"/>
<path d="M8475 1001 c-176 -43 -243 -250 -123 -385 46 -53 105 -79 178 -78 97 0 164 42 206 128 23 47 26 64 22 122 -8 111 -72 187 -178 211 -51 12 -63 12 -105 2z m136 -76 c78 -41 112 -152 70 -232 -61 -120 -223 -129 -300 -17 -100 146 70 331 230 249z"/>
<path d="M8820 770 l0 -240 30 0 30 0 2 193 3 192 135 -192 c128 -182 137 -193 168 -193 l32 0 0 240 0 240 -30 0 -30 0 0 -181 c0 -105 -4 -178 -9 -175 -5 3 -64 85 -132 181 -122 175 -123 175 -161 175 l-38 0 0 -240z"/>
<path d="M9379 1001 c-68 -22 -99 -61 -99 -125 0 -79 38 -112 149 -127 78 -11 115 -34 119 -75 4 -40 -16 -63 -64 -74 -63 -14 -144 17 -144 57 0 8 -12 13 -31 13 -30 0 -31 -1 -25 -32 13 -66 71 -101 166 -101 110 0 160 40 160 126 0 89 -42 129 -150 143 -30 3 -70 13 -87 20 -27 11 -33 18 -33 43 0 91 160 109 200 24 12 -26 21 -33 44 -33 27 0 28 2 22 32 -9 44 -31 75 -67 94 -37 19 -123 27 -160 15z"/>
</g>
    </svg>