<?xml version="1.0" encoding="UTF-8" standalone="no"?>
<svg
   id="svg2"
   viewBox="0 0 315.95859 368.89998"
   version="1.0"
   y="0"
   x="0"
   sodipodi:docname="my_fleur.svg"
   inkscape:version="1.1.1 (c3084ef, 2021-09-22)"
   width="315.95859"
   height="368.89999"
   xmlns:inkscape="http://www.inkscape.org/namespaces/inkscape"
   xmlns:sodipodi="http://sodipodi.sourceforge.net/DTD/sodipodi-0.dtd"
   xmlns="http://www.w3.org/2000/svg"
   xmlns:svg="http://www.w3.org/2000/svg">
  <defs
     id="defs5282">
    <inkscape:path-effect
       effect="skeletal"
       id="path-effect5323"
       is_visible="true"
       lpeversion="1"
       pattern="M 0,18.867925 C 0,8.4528303 8.4528303,0 18.867925,0 c 10.415094,0 18.867924,8.4528303 18.867924,18.867925 0,10.415094 -8.45283,18.867924 -18.867924,18.867924 C 8.4528303,37.735849 0,29.283019 0,18.867925 Z"
       copytype="single_stretched"
       prop_scale="1"
       scale_y_rel="false"
       spacing="0"
       normal_offset="0"
       tang_offset="0"
       prop_units="false"
       vertical_pattern="false"
       hide_knot="false"
       fuse_tolerance="0" />
    <inkscape:path-effect
       effect="skeletal"
       id="path-effect5319"
       is_visible="true"
       lpeversion="1"
       pattern="M 0,18.867925 C 0,8.4528303 8.4528303,0 18.867925,0 c 10.415094,0 18.867924,8.4528303 18.867924,18.867925 0,10.415094 -8.45283,18.867924 -18.867924,18.867924 C 8.4528303,37.735849 0,29.283019 0,18.867925 Z"
       copytype="single_stretched"
       prop_scale="1"
       scale_y_rel="false"
       spacing="0"
       normal_offset="0"
       tang_offset="0"
       prop_units="false"
       vertical_pattern="false"
       hide_knot="false"
       fuse_tolerance="0" />
  </defs>
  <sodipodi:namedview
     id="namedview5280"
     pagecolor="#505050"
     bordercolor="#eeeeee"
     borderopacity="1"
     inkscape:pageshadow="0"
     inkscape:pageopacity="0"
     inkscape:pagecheckerboard="0"
     showgrid="false"
     inkscape:zoom="1.4557184"
     inkscape:cx="128.80238"
     inkscape:cy="178.2625"
     inkscape:window-width="1296"
     inkscape:window-height="723"
     inkscape:window-x="0"
     inkscape:window-y="23"
     inkscape:window-maximized="0"
     inkscape:current-layer="svg2" />
  <path
     id="about__main--img__fleur"
     d="m 157.95775,0 c 91.01571,130.56286 43.85069,121.05221 12.21,230.05 h 8.42 c 82.76816,-249.505837 171.87632,-54.87233 123.86,-12.24 -51.62689,-90.80719 -96.81,12.24 -96.81,12.24 14.30301,2.24628 34.92456,17.33855 -5.51,23.74 -5.67801,35.22547 14.97807,58.61711 40.68,19.78 21.9137,62.34493 -56.60711,108.84523 -64.69,-19.78 h -9.64 c -5.46371,42.41119 45.01408,82.24554 -8.45,115.11 -45.63648,-28.05726 -15.31394,-61.97543 -8.59,-115.11 h -10.45 c -11.44247,151.90592 -92.587298,60.58808 -64.689998,19.78 32.374088,54.98005 40.679998,-19.78 40.679998,-19.78 -34.128828,-6.82614 -22.687668,-19.12856 -5.51,-23.74 C 65.579672,128.18116 12.651752,217.81 12.651752,217.81 -35.362564,164.87348 63.626102,-5.959446 136.51775,230.05 h 9.23 C 134.25146,147.22125 53.494772,128.65273 157.95775,0"
     sodipodi:nodetypes="ccccccccccccccccccc" />
</svg>
