<?xml version="1.0" encoding="UTF-8" standalone="no"?>
<svg
   id="svg2"
   viewBox="0 0 315.59 368.89"
   version="1.0"
   y="0"
   x="0"
   sodipodi:docname="my_fleur.svg"
   inkscape:version="1.1.1 (c3084ef, 2021-09-22)"
   xmlns:inkscape="http://www.inkscape.org/namespaces/inkscape"
   xmlns:sodipodi="http://sodipodi.sourceforge.net/DTD/sodipodi-0.dtd"
   xmlns="http://www.w3.org/2000/svg"
   xmlns:svg="http://www.w3.org/2000/svg"
   xmlns:rdf="http://www.w3.org/1999/02/22-rdf-syntax-ns#"
   xmlns:cc="http://creativecommons.org/ns#"
   xmlns:dc="http://purl.org/dc/elements/1.1/">
  <defs
     id="defs5282">
    <inkscape:path-effect
       effect="skeletal"
       id="path-effect5323"
       is_visible="true"
       lpeversion="1"
       pattern="M 0,18.867925 C 0,8.4528303 8.4528303,0 18.867925,0 c 10.415094,0 18.867924,8.4528303 18.867924,18.867925 0,10.415094 -8.45283,18.867924 -18.867924,18.867924 C 8.4528303,37.735849 0,29.283019 0,18.867925 Z"
       copytype="single_stretched"
       prop_scale="1"
       scale_y_rel="false"
       spacing="0"
       normal_offset="0"
       tang_offset="0"
       prop_units="false"
       vertical_pattern="false"
       hide_knot="false"
       fuse_tolerance="0" />
    <inkscape:path-effect
       effect="skeletal"
       id="path-effect5319"
       is_visible="true"
       lpeversion="1"
       pattern="M 0,18.867925 C 0,8.4528303 8.4528303,0 18.867925,0 c 10.415094,0 18.867924,8.4528303 18.867924,18.867925 0,10.415094 -8.45283,18.867924 -18.867924,18.867924 C 8.4528303,37.735849 0,29.283019 0,18.867925 Z"
       copytype="single_stretched"
       prop_scale="1"
       scale_y_rel="false"
       spacing="0"
       normal_offset="0"
       tang_offset="0"
       prop_units="false"
       vertical_pattern="false"
       hide_knot="false"
       fuse_tolerance="0" />
  </defs>
  <sodipodi:namedview
     id="namedview5280"
     pagecolor="#505050"
     bordercolor="#eeeeee"
     borderopacity="1"
     inkscape:pageshadow="0"
     inkscape:pageopacity="0"
     inkscape:pagecheckerboard="0"
     showgrid="false"
     inkscape:zoom="1.4557184"
     inkscape:cx="129.48933"
     inkscape:cy="176.20166"
     inkscape:window-width="1296"
     inkscape:window-height="723"
     inkscape:window-x="0"
     inkscape:window-y="23"
     inkscape:window-maximized="0"
     inkscape:current-layer="layer4" />
  <path
     id="about__main--img__fleur"
     d="m 158.31488,-2.2022728 c 91.01571,130.5628628 43.85069,121.0522128 12.21,230.0500028 h 8.42 c 82.76816,-249.50584 171.87632,-54.87233 123.86,-12.24 -51.62689,-90.80719 -96.81,12.24 -96.81,12.24 14.30301,2.24628 34.92456,17.33855 -5.51,23.74 -5.67801,35.22547 14.97807,58.61711 40.68,19.78 21.9137,62.34493 -56.60711,108.84523 -64.69,-19.78 h -9.64 c -5.46371,42.41119 45.01408,82.24554 -8.45,115.11 -45.63648,-28.05726 -15.31394,-61.97543 -8.59,-115.11 h -10.45 c -11.44247,151.90592 -92.587302,60.58808 -64.690002,19.78 32.374092,54.98005 40.680002,-19.78 40.680002,-19.78 -34.128832,-6.82614 -22.687672,-19.12856 -5.51,-23.74 -43.888082,-101.86884 -96.816002,-12.24 -96.816002,-12.24 -48.014316,-52.93652 50.97435,-223.7694488 123.866002,12.24 h 9.23 c -11.49629,-82.82875 -92.252982,-101.39727 12.21,-230.0500028"
     sodipodi:nodetypes="ccccccccccccccccccc" />
</svg>
